<?xml version="1.0" standalone="no"?>
<!DOCTYPE svg PUBLIC "-//W3C//DTD SVG 20010904//EN"
 "http://www.w3.org/TR/2001/REC-SVG-20010904/DTD/svg10.dtd">
<svg version="1.0" xmlns="http://www.w3.org/2000/svg"
 width="120.000000pt" height="120.000000pt" viewBox="0 0 120.000000 120.000000"
 preserveAspectRatio="xMidYMid meet">

<g transform="translate(0.000000,120.000000) scale(0.100000,-0.100000)"
fill="#000000" stroke="none">
<path d="M825 970 c-22 -24 -38 -90 -21 -90 23 1 43 26 50 62 8 43 -4 55 -29
28z"/>
<path d="M951 966 c-14 -16 -41 -100 -41 -124 0 -12 5 -10 20 6 12 12 27 22
34 22 9 0 13 15 12 49 -1 56 -8 68 -25 47z"/>
<path d="M467 930 c-14 -11 -30 -20 -35 -20 -5 0 -33 -21 -61 -46 -43 -38 -54
-56 -71 -112 -12 -41 -19 -87 -17 -119 3 -47 1 -52 -22 -63 -25 -11 -25 -12
-6 -26 10 -8 30 -14 43 -14 27 0 56 -25 47 -40 -8 -13 -72 -7 -87 8 -7 7 -20
12 -31 12 -10 0 -15 5 -11 11 12 20 -51 -19 -81 -51 -38 -40 -40 -92 -5 -139
53 -69 70 -83 96 -78 14 2 51 -3 82 -13 241 -75 615 -35 743 79 39 34 44 43
44 81 0 38 -5 47 -43 80 -24 22 -42 47 -42 59 0 12 -11 26 -27 35 -16 8 -23
15 -16 16 7 0 10 10 7 28 -12 67 -26 100 -54 127 -16 16 -30 35 -30 42 0 7 -6
13 -13 13 -7 0 -18 5 -25 12 -9 9 -7 14 6 24 24 17 7 30 -23 16 -21 -10 -28
-8 -54 18 -16 17 -37 30 -46 30 -8 0 -27 7 -40 16 -14 9 -36 14 -50 12 -14 -3
-33 1 -42 8 -28 21 -106 17 -136 -6z m91 -22 c7 -7 12 -25 12 -40 0 -23 -4
-28 -25 -28 -22 0 -25 4 -25 33 0 46 14 59 38 35z m132 -31 c0 -34 -25 -65
-40 -50 -19 18 -3 73 21 73 13 0 19 -7 19 -23z m-236 -29 c23 -32 21 -68 -4
-68 -29 0 -54 43 -40 69 14 27 25 26 44 -1z m322 7 c9 -21 -23 -65 -46 -65
-24 0 -24 0 -3 45 17 37 40 46 49 20z m-208 -67 c13 -13 17 -68 5 -68 -14 0
-43 34 -43 50 0 30 18 38 38 18z m282 -3 c10 -12 9 -20 -4 -40 -32 -48 -63
-16 -36 36 13 23 23 24 40 4z m-200 -6 c0 -17 -20 -49 -30 -49 -6 0 -10 14
-10 30 0 23 4 30 20 30 11 0 20 -5 20 -11z m-262 -53 c4 -31 -21 -36 -50 -9
-21 19 -23 34 -6 51 17 17 52 -8 56 -42z m332 21 c0 -15 -37 -53 -44 -46 -2 2
-2 16 1 32 4 18 12 27 24 27 11 0 19 -6 19 -13z m-212 -30 c2 -15 -1 -27 -6
-27 -17 0 -34 29 -28 46 9 23 31 11 34 -19z m282 -33 c0 -15 -30 -34 -55 -34
-15 0 -15 3 1 29 17 29 54 33 54 5z m-338 -11 c23 -21 23 -33 -1 -33 -22 0
-45 25 -36 40 9 14 15 13 37 -7z m488 -7 c0 -27 -35 -76 -55 -76 -21 0 -26 16
-15 47 19 51 70 73 70 29z m-125 -96 c0 -17 -37 -25 -63 -15 -15 5 -13 9 8 21
30 17 55 14 55 -6z m-564 -111 c15 -8 18 -14 9 -24 -8 -10 -16 -10 -35 -2 -17
9 -21 15 -13 24 13 16 14 16 39 2z m84 -33 c12 -12 11 -16 -5 -31 -11 -10 -20
-13 -20 -7 0 7 -11 14 -25 18 -20 5 -23 9 -14 20 15 18 47 18 64 0z m-141 -43
c-19 -14 -38 -17 -31 -5 2 4 7 15 11 26 5 15 9 16 22 5 14 -12 14 -14 -2 -26z
m21 -44 c-4 -6 -13 -8 -21 -5 -20 8 -17 -2 10 -35 13 -15 27 -25 31 -21 5 4 5
1 1 -5 -11 -19 -33 -16 -56 7 -26 26 -25 55 1 81 20 20 23 20 31 5 5 -9 6 -21
3 -27z m71 27 c9 -9 10 -17 4 -21 -5 -3 -10 -14 -10 -24 0 -9 -7 -26 -15 -37
-14 -18 -15 -17 -4 8 10 22 9 32 -4 52 -15 23 -13 29 11 35 2 1 10 -5 18 -13z"/>
<path d="M535 887 c-4 -10 -5 -21 -1 -24 10 -10 18 4 13 24 -4 17 -4 17 -12 0z"/>
<path d="M660 860 c0 -19 3 -21 12 -12 9 9 9 15 0 24 -9 9 -12 7 -12 -12z"/>
<path d="M430 826 c0 -9 5 -16 10 -16 6 0 10 4 10 9 0 6 -4 13 -10 16 -5 3
-10 -1 -10 -9z"/>
<path d="M743 835 c-9 -25 4 -29 17 -6 7 15 7 21 0 21 -6 0 -13 -7 -17 -15z"/>
<path d="M820 754 c0 -8 5 -12 10 -9 6 3 10 10 10 16 0 5 -4 9 -10 9 -5 0 -10
-7 -10 -16z"/>
<path d="M350 734 c0 -8 5 -12 10 -9 6 4 8 11 5 16 -9 14 -15 11 -15 -7z"/>
<path d="M895 640 c-14 -26 -14 -29 0 -24 14 6 35 34 35 48 0 17 -22 2 -35
-24z"/>
<path d="M266 357 c3 -10 9 -15 12 -12 3 3 0 11 -7 18 -10 9 -11 8 -5 -6z"/>
<path d="M953 813 c-39 -27 -28 -45 12 -22 35 21 46 39 23 38 -7 0 -23 -7 -35
-16z"/>
<path d="M983 742 l-33 -17 30 -29 c17 -15 30 -36 30 -47 0 -10 4 -19 8 -19
10 0 32 45 32 65 0 18 -21 65 -29 65 -3 -1 -21 -9 -38 -18z"/>
<path d="M24 166 c-3 -7 -4 -42 -2 -77 l3 -64 575 0 575 0 0 75 0 75 -119 3
c-106 2 -118 1 -112 -13 3 -9 6 -19 6 -21 0 -2 9 -4 19 -4 27 0 35 -17 15 -28
-11 -6 -15 -17 -11 -31 6 -25 -9 -37 -28 -21 -10 8 -19 8 -34 0 -22 -11 -24
-8 -22 26 1 12 -5 24 -14 28 -20 7 -10 26 15 26 15 0 30 18 30 36 0 2 -200 4
-445 4 -366 0 -447 -2 -451 -14z m48 -38 l12 -33 8 33 c13 48 28 39 28 -18 0
-27 -4 -50 -10 -50 -5 0 -11 8 -11 18 -1 16 -2 16 -6 -1 -6 -25 -23 -21 -24 6
-1 21 -1 21 -9 -3 -6 -20 -8 -14 -9 28 -1 60 5 66 21 20z m138 22 c6 10 10 11
10 3 0 -7 7 -13 15 -13 11 0 15 -11 13 -42 l-1 -43 -4 38 c-5 43 -23 40 -23
-4 0 -22 -5 -29 -20 -29 -11 0 -20 6 -20 13 0 8 -3 8 -9 -2 -16 -26 -43 -4
-39 31 2 25 8 34 26 36 12 2 22 9 22 15 0 7 4 6 10 -3 9 -13 11 -13 20 0z
m136 -3 c3 -9 18 -12 42 -10 26 2 41 -2 50 -14 11 -16 12 -16 12 0 0 10 8 17
21 17 18 0 20 -5 17 -52 -2 -41 -7 -54 -20 -56 -10 -2 -18 1 -18 7 0 6 7 8 15
5 8 -4 15 -1 15 5 0 6 -7 11 -15 11 -8 0 -16 8 -16 18 -1 16 -2 15 -6 -1 -3
-12 -12 -17 -26 -15 -29 4 -34 34 -7 43 26 8 18 22 -12 20 -18 -1 -24 -9 -29
-36 -5 -28 -7 -29 -8 -9 l-2 25 -9 -22 c-6 -16 -18 -23 -35 -23 -23 0 -25 3
-25 50 0 47 2 50 25 50 14 0 28 -6 31 -13z m310 -1 c8 -8 14 -21 14 -28 1 -8
6 -6 15 6 15 20 15 20 15 0 0 -30 -20 -94 -30 -94 -4 0 -6 8 -3 18 2 10 0 34
-5 53 l-10 34 -3 -40 -2 -40 -7 40 -7 40 -2 -37 c0 -21 -5 -38 -11 -38 -5 0
-11 17 -11 38 l-2 37 -7 -40 -7 -40 -2 38 c-1 46 -20 41 -22 -6 -1 -18 -3 -24
-6 -14 -4 17 -5 17 -17 1 -19 -26 -46 -11 -46 26 0 38 27 52 46 25 13 -17 14
-17 14 -2 0 11 8 17 25 17 14 0 25 5 25 10 0 15 29 12 46 -4z m493 -23 c0 -23
-2 -25 -8 -9 -4 11 -16 23 -27 27 -16 6 -14 8 9 8 23 1 27 -3 26 -26z m-29 -7
c-10 -13 -40 -12 -40 1 0 3 7 3 15 0 8 -4 17 -2 20 3 4 6 9 10 12 10 3 0 0 -6
-7 -14z m-63 -38 c-3 -8 -6 -5 -6 6 -1 11 2 17 5 13 3 -3 4 -12 1 -19z"/>
<path d="M140 100 c0 -16 5 -30 10 -30 6 0 10 14 10 30 0 17 -4 30 -10 30 -5
0 -10 -13 -10 -30z"/>
<path d="M190 100 c0 -16 5 -30 10 -30 6 0 10 14 10 30 0 17 -4 30 -10 30 -5
0 -10 -13 -10 -30z"/>
<path d="M300 110 c0 -34 3 -41 18 -38 24 5 24 71 0 76 -15 3 -18 -4 -18 -38z"/>
<path d="M460 100 c0 -18 4 -29 10 -25 6 3 10 15 10 25 0 10 -4 22 -10 25 -6
4 -10 -7 -10 -25z"/>
<path d="M411 91 c-8 -5 -9 -11 -3 -15 5 -3 12 1 16 9 6 17 6 18 -13 6z"/>
<path d="M516 115 c-7 -19 3 -47 15 -39 5 3 9 14 9 24 0 24 -16 34 -24 15z"/>
</g>
</svg>
